<svg xmlns="http://www.w3.org/2000/svg" width="1200" height="675" viewBox="0 0 1200 675" role="img" aria-labelledby="art-title art-desc"><title id="art-title">HTAFL CONNECT / Event announcement</title><desc id="art-desc">Editable HTAFL artwork. Bracketed copy and empty image frames are template placeholders, not approved posts.</desc><rect x="0" y="0" width="1200" height="675" rx="0" fill="#F7F3EA"/><path d="M64 104H1136" fill="none" stroke="#3157FF" stroke-width="3"/><text x="64" y="72" font-family="Inter, Arial, sans-serif" font-size="28" font-weight="500" fill="#111827">CONNECT</text><g transform="translate(916 28) scale(0.06666666666666667) translate(-178 -89)" fill="#111827"><path d="M627 182C625 214 582 331 537 443L542 443L574 367C592 323 610 309 627 339C642 362 665 433 691 494C707 533 728 564 751 582L771 568C727 445 679 300 627 182Z"/><path d="M738 453L1028 452C957 492 879 554 812 604L672 708L642 687C690 635 806 559 854 516C892 485 868 467 836 463C806 458 772 455 738 453Z"/><path d="M792 622L891 896C819 849 739 809 670 762L511 649L522 619C595 665 682 727 756 774C803 803 827 778 817 733C812 700 801 658 792 622Z"/><path d="M364 896L515 495L556 495C550 529 534 570 514 620L470 729C449 786 485 789 529 767L602 730C530 791 437 830 364 896Z"/><path d="M228 453L670 453C648 477 609 484 568 486L456 486C384 486 355 506 416 565L461 605L459 609C380 551 300 481 228 453Z"/></g><text x="992" y="72" font-family="Space Grotesk, Arial, sans-serif" font-size="44" font-weight="700" letter-spacing="-0.03em" fill="#111827">HTAFL</text><text x="64" y="198" font-family="Space Grotesk, Arial, sans-serif" font-size="60" font-weight="700" letter-spacing="-0.035em" fill="#111827">[Confirmed event name]</text><text x="64" y="277.2" font-family="Inter, Arial, sans-serif" font-size="28" font-weight="400" fill="#111827">[Confirmed date / time / zone]</text><text x="64" y="328.4" font-family="Inter, Arial, sans-serif" font-size="28" font-weight="400" fill="#111827">[Confirmed venue / access details]</text><text x="64" y="379.59999999999997" font-family="Inter, Arial, sans-serif" font-size="28" font-weight="400" fill="#111827">[Real registration destination]</text><text x="64" y="587" font-family="Inter, Arial, sans-serif" font-size="28" font-weight="500" fill="#111827">[Verified event CTA]</text></svg>
