<svg xmlns="http://www.w3.org/2000/svg" width="1080" height="1920" viewBox="0 0 1080 1920" role="img" aria-labelledby="art-title art-desc"><title id="art-title">HTAFL CONNECT / Community spotlight</title><desc id="art-desc">Editable HTAFL artwork. Bracketed copy and empty image frames are template placeholders, not approved posts.</desc><rect x="0" y="0" width="1080" height="1920" rx="0" fill="#F7F3EA"/><path d="M88 422H840" fill="none" stroke="#3157FF" stroke-width="3"/><text x="88" y="390" font-family="Inter, Arial, sans-serif" font-size="28" font-weight="500" fill="#111827">CONNECT</text><g transform="translate(780 346) scale(0.06666666666666667) translate(-178 -89)" fill="#111827"><path d="M627 182C625 214 582 331 537 443L542 443L574 367C592 323 610 309 627 339C642 362 665 433 691 494C707 533 728 564 751 582L771 568C727 445 679 300 627 182Z"/><path d="M738 453L1028 452C957 492 879 554 812 604L672 708L642 687C690 635 806 559 854 516C892 485 868 467 836 463C806 458 772 455 738 453Z"/><path d="M792 622L891 896C819 849 739 809 670 762L511 649L522 619C595 665 682 727 756 774C803 803 827 778 817 733C812 700 801 658 792 622Z"/><path d="M364 896L515 495L556 495C550 529 534 570 514 620L470 729C449 786 485 789 529 767L602 730C530 791 437 830 364 896Z"/><path d="M228 453L670 453C648 477 609 484 568 486L456 486C384 486 355 506 416 565L461 605L459 609C380 551 300 481 228 453Z"/></g><text x="88" y="620" font-family="Space Grotesk, Arial, sans-serif" font-size="88" font-weight="700" letter-spacing="-0.035em" fill="#111827">[Approved</text><text x="88" y="718.56" font-family="Space Grotesk, Arial, sans-serif" font-size="88" font-weight="700" letter-spacing="-0.035em" fill="#111827">title]</text><text x="88" y="853.12" font-family="Inter, Arial, sans-serif" font-size="36" font-weight="400" fill="#111827">[Approved public credit]</text><rect x="88" y="990" width="752" height="370" rx="16" fill="#DCE7F7" stroke="#111827" stroke-width="2"/><text x="112" y="1046" font-family="Inter, Arial, sans-serif" font-size="36" font-weight="500" fill="#111827">[Approved image]</text><text x="112" y="1090" font-family="Inter, Arial, sans-serif" font-size="28" font-weight="400" fill="#111827">No image supplied</text><text x="88" y="1458" font-family="Inter, Arial, sans-serif" font-size="36" font-weight="500" fill="#111827">[Approved invitation / credit]</text></svg>
